PathFileType	4	(X/Y/Z)	5_coords_data.trc
DataRate	CameraRate	NumFrames	NumMarkers	Units	OrigDataRate	OrigDataStartFrame	OrigNumFrames
30.0	30.0	9	21	m	30.0	1	62
Frame#	Time	THUMB_TIP	THUMB_IP	THUMB_MCP	THUMB_CMC	INDEX_TIP	INDEX_DIP	INDEX_PIP	INDEX_MCP	MIDDLE_TIP	MIDDLE_DIP	MIDDLE_PIP	MIDDLE_MCP	RING_TIP	RING_DIP	RING_PIP	RING_MCP	PINKY_TIP	PINKY_DIP	PINKY_PIP	PINKY_MCP	WRIST
X1	Y1	Z1	X2	Y2	Z2	X3	Y3	Z3	X4	Y4	Z4	X5	Y5	Z5	X6	Y6	Z6	X7	Y7	Z7	X8	Y8	Z8	X9	Y9	Z9	X10	Y10	Z10	X11	Y11	Z11	X12	Y12	Z12	X13	Y13	Z13	X14	Y14	Z14	X15	Y15	Z15	X16	Y16	Z16	X17	Y17	Z17	X18	Y18	Z18	X19	Y19	Z19	X20	Y20	Z20	X21	Y21	Z21
0	0.0	-0.04397320175170898	-0.1979219970703125	1.02352001953125	-0.03825170135498047	-0.17246699523925782	1.0224199829101563	-0.03794219970703125	-0.14493699645996094	1.0364100341796876	-0.03646780014038086	-0.10652300262451173	1.0456199951171874	-0.0389552993774414	-0.12305300140380859	1.0135599975585938	-0.02388019943237305	-0.12294300079345703	1.0054199829101562	-0.019386999130249022	-0.12850700378417967	0.9848720092773438	-0.06038339996337891	-0.12756800079345704	0.9886599731445312	-0.03292480087280274	-0.10848999786376953	1.0166599731445312	-0.021388700485229492	-0.10596499633789062	1.0041599731445312	-0.020175399780273436	-0.10897899627685546	0.9774199829101563	-0.062450599670410153	-0.10949500274658203	0.9824869995117187	-0.032812400817871096	-0.08884909820556641	1.0153200073242188	-0.021771699905395507	-0.0889020004272461	1.0019299926757812	-0.02042770004272461	-0.08894280242919922	0.9782919921875	-0.060915000915527345	-0.08960900115966797	0.9844359741210937	-0.03615349960327149	-0.07205590057373047	1.00722998046875	-0.022274900436401367	-0.07315070343017578	1.002739990234375	-0.023995000839233397	-0.07182550048828125	0.9862360229492187	-0.05160900115966797	-0.07073590087890624	0.9853280029296875	-0.04573830032348633	-0.07852020263671874	1.0511099853515624
1	0.03333333333333333	-0.04489749908447266	-0.19720799255371094	1.0243299560546875	-0.03791989898681641	-0.17181100463867188	1.022260009765625	-0.03934230041503906	-0.14498699951171876	1.035550048828125	-0.03708349990844727	-0.10936199951171875	1.04102001953125	-0.03744889831542969	-0.12058699798583984	1.0166799926757812	-0.022857500076293946	-0.12158499908447265	1.0068099975585938	-0.01981599998474121	-0.1281020050048828	0.9857360229492188	-0.0601260986328125	-0.12826499938964844	0.98989697265625	-0.03192930030822754	-0.10588999938964844	1.0150900268554688	-0.02166819953918457	-0.10488800048828124	1.004510009765625	-0.02040959930419922	-0.10906900024414062	0.9777899780273438	-0.06190409851074219	-0.10879199981689452	0.9837620239257813	-0.034890201568603514	-0.08837329864501953	1.0163599853515626	-0.022312400817871093	-0.08814510345458984	1.004	-0.020699300765991212	-0.08911299896240234	0.9789299926757813	-0.06009870147705078	-0.08969509887695312	0.9834429931640625	-0.036546199798583985	-0.07322989654541015	1.0105599975585937	-0.022930599212646483	-0.07310160064697266	1.003010009765625	-0.02319529914855957	-0.0729977035522461	0.9859459838867187	-0.052650398254394534	-0.07124810028076171	0.9857540283203124	-0.047533699035644535	-0.07851930236816407	1.0516199951171874
2	0.06666666666666667	-0.044925701141357424	-0.19726100158691406	1.0243900146484375	-0.037941898345947266	-0.1718249969482422	1.0224099731445313	-0.039346000671386716	-0.14500100708007813	1.0357900390625	-0.03694359970092773	-0.10952100372314454	1.0411099853515624	-0.03709400177001953	-0.12024400329589843	1.0180800170898439	-0.02295479965209961	-0.12164399719238281	1.0069400024414064	-0.019884700775146483	-0.1281790008544922	0.9858709716796875	-0.060308200836181644	-0.1283190002441406	0.9903389892578125	-0.03234550094604492	-0.10567800140380859	1.018219970703125	-0.021856300354003905	-0.10494300079345703	1.0047100219726564	-0.020485300064086914	-0.10917299652099609	0.9779199829101562	-0.06206290054321289	-0.10883499908447265	0.984156005859375	-0.03494589996337891	-0.08854740142822265	1.0147899780273437	-0.022441699981689454	-0.0882052001953125	1.0042000122070311	-0.020815299987792968	-0.08920800018310547	0.9790880126953125	-0.060195999145507814	-0.08976589965820313	0.9838300170898437	-0.036611499786376955	-0.07319190216064453	1.0105	-0.023016300201416016	-0.07319280242919922	1.003469970703125	-0.02333359909057617	-0.07310810089111328	0.986093017578125	-0.052820999145507815	-0.07131430053710938	0.9860330200195313	-0.04762779998779297	-0.07857599639892578	1.0518199462890625
3	0.1	-0.04489459991455078	-0.197281005859375	1.0244300537109374	-0.03800510025024414	-0.17182699584960937	1.0224199829101563	-0.03943489837646484	-0.14503900146484375	1.0358299560546875	-0.037215499877929686	-0.10943599700927735	1.041260009765625	-0.037391998291015624	-0.12038400268554687	1.0181099853515625	-0.0229955997467041	-0.12169100189208984	1.007010009765625	-0.019976200103759764	-0.12822500610351562	0.9860089721679688	-0.06034099960327149	-0.12832899475097656	0.9903939819335937	-0.03226900100708008	-0.10581400299072266	1.018030029296875	-0.021928400039672852	-0.10498699951171875	1.0049000244140625	-0.020575000762939454	-0.10920200347900391	0.9781119995117188	-0.06213140106201172	-0.10885299682617187	0.984281982421875	-0.035027000427246095	-0.08862799835205078	1.0148900146484374	-0.02247879981994629	-0.08824690246582031	1.0043099975585938	-0.021091400146484376	-0.08929219818115235	0.9790780029296875	-0.06036800003051758	-0.08978340148925781	0.9839769897460937	-0.03666949844360352	-0.0732509994506836	1.0106500244140626	-0.023074899673461914	-0.07320590209960938	1.0032899780273437	-0.02344659996032715	-0.07312509918212891	0.9861939697265625	-0.05287950134277344	-0.07132929992675781	0.98618798828125	-0.04761449813842773	-0.07864009857177734	1.0518399658203126
4	0.13333333333333333	-0.045089599609375	-0.197197998046875	1.0244000244140625	-0.038124900817871094	-0.17174400329589845	1.0224600219726563	-0.039587799072265624	-0.1449909973144531	1.0359300537109375	-0.03725400161743164	-0.10948400115966797	1.0413299560546876	-0.03758789825439453	-0.1203939971923828	1.017989990234375	-0.02304240036010742	-0.1216510009765625	1.0073099975585937	-0.02008300018310547	-0.12822999572753907	0.98614501953125	-0.0604645004272461	-0.12825900268554688	0.9905599975585937	-0.03240330123901367	-0.10569499969482422	1.01747998046875	-0.021967899322509764	-0.10500800323486328	1.0050399780273438	-0.020737899780273437	-0.10921399688720704	0.978177001953125	-0.06224750137329101	-0.10879199981689452	0.9843619995117188	-0.03516130065917969	-0.08844120025634766	1.0170399780273438	-0.02251460075378418	-0.08825630187988281	1.0044000244140625	-0.021009700775146484	-0.089247802734375	0.9792999877929688	-0.06029610061645508	-0.08972419738769531	0.9840780029296875	-0.03670980072021485	-0.07326959991455079	1.010719970703125	-0.023081300735473632	-0.07320179748535156	1.0034400024414063	-0.023442899703979492	-0.07312960052490235	0.9863480224609374	-0.052884998321533205	-0.07126329803466797	0.986322021484375	-0.04760929870605469	-0.07858280181884765	1.051949951171875
5	0.16666666666666666	-0.045281600952148435	-0.19703599548339842	1.0243699951171874	-0.03824300003051758	-0.17160699462890625	1.0224299926757812	-0.03966210174560547	-0.1448789978027344	1.03597998046875	-0.03708440017700195	-0.10940799713134766	1.0414200439453125	-0.03721630096435547	-0.1200189971923828	1.0186099853515624	-0.023076000213623046	-0.12151100158691407	1.0074500122070313	-0.020166000366210936	-0.12808700561523437	0.9862239990234375	-0.06054359817504883	-0.1280850067138672	0.9906309814453125	-0.03254850006103516	-0.10559400177001953	1.0183699951171874	-0.02217639923095703	-0.10485900115966797	1.0051300048828125	-0.020744300842285155	-0.10905500030517579	0.9783820190429687	-0.0622328987121582	-0.10861599731445312	0.9844619750976562	-0.03535770034790039	-0.08827829742431641	1.0167899780273437	-0.02270859909057617	-0.08810289764404297	1.0046900024414063	-0.021085899353027345	-0.089114501953125	0.9794530029296875	-0.06037350082397461	-0.08957019805908203	0.9841409912109375	-0.036830398559570314	-0.07311589813232422	1.0110700073242187	-0.023151500701904297	-0.07305590057373047	1.003760009765625	-0.02345319938659668	-0.07297139739990234	0.9864520263671875	-0.052905601501464845	-0.07113020324707031	0.9863709716796875	-0.047809600830078125	-0.07843350219726562	1.052280029296875
6	0.2	-0.04528990173339844	-0.1968800048828125	1.0242900390625	-0.03828879928588867	-0.17145700073242187	1.0223699951171874	-0.03974169921875	-0.14472300720214842	1.0360699462890626	-0.037426898956298825	-0.10913800048828125	1.0416199951171874	-0.037538700103759766	-0.12012300109863282	1.018219970703125	-0.023209100723266603	-0.12136499786376953	1.00747998046875	-0.020396299362182617	-0.12785800170898437	0.9861069946289063	-0.06064509963989258	-0.1279260025024414	0.9907760009765625	-0.03243439865112305	-0.10556500244140625	1.0178200073242187	-0.022247900009155275	-0.10471099853515625	1.0051099853515626	-0.020828899383544923	-0.10885900115966797	0.9785029907226562	-0.06233259963989258	-0.10850099945068359	0.9846179809570312	-0.03549290084838867	-0.08822949981689453	1.0165	-0.022716800689697267	-0.08797329711914062	1.0046900024414063	-0.021210500717163086	-0.08891439819335938	0.9794010009765625	-0.06039970016479492	-0.08938899993896485	0.9842000122070312	-0.03687329864501953	-0.07302829742431641	1.011260009765625	-0.023113100051879883	-0.07296389770507812	1.00375	-0.023589500427246092	-0.07278949737548829	0.9865499877929688	-0.052999298095703126	-0.0709446029663086	0.986489013671875	-0.04775070190429687	-0.07837529754638672	1.052199951171875
7	0.23333333333333334	-0.04529690170288086	-0.19675799560546875	1.0241500244140624	-0.0382765998840332	-0.17125799560546875	1.0224299926757812	-0.0397328987121582	-0.14458900451660156	1.0361600341796875	-0.03746839904785156	-0.10904100036621094	1.041780029296875	-0.03761220169067383	-0.12016100311279297	1.017989990234375	-0.023226900100708006	-0.12127999877929688	1.0075999755859375	-0.02027779960632324	-0.12779399871826172	0.9863280029296875	-0.06050870132446289	-0.12783699798583983	0.9907789916992188	-0.03247769927978516	-0.10551000213623046	1.01797998046875	-0.022193300247192384	-0.10462300109863282	1.0053499755859374	-0.02079610061645508	-0.10874700164794922	0.9786519775390625	-0.062319499969482425	-0.10839499664306641	0.9847379760742188	-0.035391300201416016	-0.08809929656982422	1.0164600219726563	-0.022683000564575194	-0.08784970092773438	1.0048499755859375	-0.021077899932861327	-0.08878040313720703	0.9796519775390625	-0.06044350051879883	-0.08929129791259766	0.9843829956054687	-0.03688679885864258	-0.07290869903564454	1.0113499755859374	-0.023096200942993163	-0.07287460327148437	1.0039299926757812	-0.023526100158691405	-0.07267949676513671	0.9867379760742188	-0.05296900177001953	-0.07084449768066406	0.9866799926757812	-0.0478047981262207	-0.07822550201416016	1.05256005859375
8	0.26666666666666666	-0.045213298797607424	-0.19668600463867186	1.0241700439453125	-0.03818870162963867	-0.17121099853515626	1.022469970703125	-0.039672798156738284	-0.14455599975585937	1.03631005859375	-0.037473800659179685	-0.10901499938964844	1.0419599609375	-0.03763339996337891	-0.11991600036621093	1.0185499877929687	-0.023193199157714842	-0.12125700378417968	1.0078200073242187	-0.020202999114990235	-0.1277570037841797	0.9865449829101562	-0.06056129837036133	-0.12778199768066406	0.991135986328125	-0.032500499725341796	-0.10526399993896485	1.0185800170898438	-0.022183099746704103	-0.1045469970703125	1.0056300048828124	-0.020676799774169922	-0.10867299652099609	0.9788419799804687	-0.06231570053100586	-0.1083239974975586	0.9850570068359376	-0.035342300415039066	-0.0879894027709961	1.0173300170898438	-0.022727500915527343	-0.08779910278320313	1.0049500122070312	-0.021181699752807617	-0.08877909851074219	0.9798289794921875	-0.06038909912109375	-0.08923280334472657	0.9847449951171875	-0.036814201354980466	-0.07280410003662109	1.0114600219726562	-0.0231289005279541	-0.07279170227050781	1.0041799926757813	-0.023501800537109374	-0.07263559722900391	0.986989990234375	-0.052918201446533204	-0.07083350372314454	0.986885986328125	-0.04768190002441406	-0.07817559814453125	1.05268994140625
